<?xml version="1.0" encoding="utf-8"?>
<!-- Generator: Adobe Illustrator 18.1.1, SVG Export Plug-In . SVG Version: 6.00 Build 0)  -->
<svg version="1.1" id="Layer_1" xmlns="http://www.w3.org/2000/svg" xmlns:xlink="http://www.w3.org/1999/xlink" x="0px" y="0px"
	 viewBox="0 0 38 36" enable-background="new 0 0 38 36" xml:space="preserve">
<g>
	<path fill="#C5974E" stroke="#C5974E" stroke-width="0.5" stroke-miterlimit="10" d="M7,14.5c-0.9,1.2-0.7,1.9-0.6,2.2
		c0.3,0.8,1.8,0.6,3.3-0.5c0.9-0.7,1.4-1.3,1.8-1.9c-0.1-0.3-0.2-0.8-0.2-1.1c0-0.9,0.7-1.7,1.3-1.7c0.7-0.1,1,0.5,1,0.9
		c0,0.8-0.7,1.6-1.3,2.1c0.9,2.2,3.9,2,5.6,1.5c0.1,0,0.3-0.1,0.3,0.1c0,0.1,0,0.2-0.2,0.2c-1.7,0.6-5,1-6.1-1.5
		c-0.4,0.5-1.1,1.3-1.8,1.7c-1.9,1.3-4.1,1.7-4.8,0.3c-0.3-0.7-0.2-1.6,0.2-2.4c-1,0.6-2.3,1.3-4,1.8c-0.1,0-0.2,0-0.3-0.1
		c0-0.1,0-0.2,0.1-0.2c1.7-0.6,4.3-1.9,5-2.6c0.7-0.8,1.8-2,2.7-2.9c4-4.1,6.5-6.1,8.5-7.5c3-2.1,4.9-2.1,5.4-1.6
		c0.8,0.8-0.7,3-5.4,6c-4.7,3-7.4,3.7-7.6,3.8C9.3,11.8,8.3,12.8,7,14.5z M17.4,7.2c4-2.6,5.3-4.2,4.8-5c-0.2-0.3-1.8,0.2-3.8,1.7
		c-2.4,1.7-4.5,3.4-7.8,6.8C10.5,10.7,13.3,9.9,17.4,7.2z"/>
	<path fill="#C5974E" stroke="#C5974E" stroke-width="0.5" stroke-miterlimit="10" d="M23.9,16.3c-0.2,0.6,0,0.8,0.8,0.6
		c2.1-0.5,6.2-3.3,8-5.1c0.2-0.2,0.6-0.6,0.9-0.1c0.3,0.4,0.4,1,0.2,1.2c-1,1.2-2.8,3.6-4.2,5.4c0.7-0.1,4.5-1.4,7-2.4
		c0.2-0.1,0.3-0.1,0.4,0c0,0.1,0,0.2-0.3,0.3c-3.1,1.2-7,2.4-7.7,2.6c-1.6,2.1-2.6,3.3-3.6,4.5c-3.4,4.1-9.1,11.4-15.2,11.4
		c-2.3,0-3.5-1.3-3.5-3.2c0-2.4,2.4-4.8,5.5-6.3c5.5-2.7,9.6-4.3,15.1-6.5c1.7-2.1,3.4-4.3,4-5c0.1-0.1,0-0.2-0.1-0.1
		c-1.4,1.2-4.5,3.3-7.3,4.1c-0.7,0.2-1.5,0-1.4-1c0.1-1,0.6-1.4,2.2-3.7c0.2-0.2,0-0.4-0.2-0.3c-0.6,0.5-1.5,1.2-2.7,1.9
		c-1,0.6-2.3,1.3-4,1.8c-0.1,0-0.2,0-0.3-0.1c0-0.1,0-0.2,0.1-0.2c1.4-0.5,2.9-1.2,3.9-1.8c1.2-0.7,2.2-1.5,2.9-2.2
		c0.8-0.7,1.3-0.8,1.6-0.7c0.6,0.2,0.7,1,0,1.9C25.1,14.4,24,15.7,23.9,16.3z M26.9,19.3c-4,1.7-9.2,3.6-14.6,6.3
		c-2.7,1.3-5,3.5-5,5.8c0,2.1,1.7,2.6,3.3,2.4c4.2-0.7,9.4-6.5,13.4-11.1C24.6,22,25.7,20.8,26.9,19.3z"/>
</g>
</svg>
