<?xml version="1.0" encoding="utf-8"?>
<!-- Generator: Adobe Illustrator 18.1.1, SVG Export Plug-In . SVG Version: 6.00 Build 0)  -->
<svg version="1.1" id="Layer_1" xmlns="http://www.w3.org/2000/svg" xmlns:xlink="http://www.w3.org/1999/xlink" x="0px" y="0px"
	 viewBox="0 0 330 500" enable-background="new 0 0 330 500" xml:space="preserve">
<polygon fill="#1E381E" points="222.8,63.9 222.8,122.6 311,122.6 311,1.9 "/>
<line fill="#1E381E" stroke="#1E381E" stroke-width="3" x1="2.9" y1="438.4" x2="61.9" y2="438.4"/>
<line fill="#1E381E" stroke="#1E381E" stroke-width="3" x1="2.9" y1="497.2" x2="61.9" y2="497.2"/>
<line fill="#1E381E" stroke="#1E381E" stroke-width="3" x1="248.8" y1="438.1" x2="281.6" y2="468.4"/>
<line fill="#1E381E" stroke="#1E381E" stroke-width="3" x1="282" y1="468.4" x2="314.9" y2="438.1"/>
<line fill="#1E381E" stroke="#1E381E" stroke-width="3" x1="32.2" y1="495.6" x2="32.2" y2="438.6"/>
<line fill="#1E381E" stroke="#1E381E" stroke-width="3" x1="127.6" y1="438.4" x2="186.2" y2="438.4"/>
<line fill="#1E381E" stroke="#1E381E" stroke-width="3" x1="186.5" y1="497.3" x2="186.5" y2="438.6"/>
<line fill="#1E381E" stroke="#1E381E" stroke-width="3" x1="281.7" y1="497.7" x2="281.7" y2="467.9"/>
<line fill="#1E381E" stroke="#1E381E" stroke-width="3" x1="139.5" y1="343.2" x2="174.8" y2="343.2"/>
<line fill="#1E381E" stroke="#1E381E" stroke-width="3" x1="121.6" y1="372.5" x2="157" y2="313.6"/>
<line fill="#1E381E" stroke="#1E381E" stroke-width="3" x1="157.1" y1="313.6" x2="192.5" y2="372.5"/>
<line fill="#1E381E" stroke="#1E381E" stroke-width="3" x1="236" y1="372.8" x2="258.5" y2="313.9"/>
<line fill="#1E381E" stroke="#1E381E" stroke-width="3" x1="281.4" y1="372.9" x2="259" y2="313.9"/>
<line fill="#1E381E" stroke="#1E381E" stroke-width="3" x1="304.3" y1="313.9" x2="281.9" y2="372.9"/>
<line fill="#1E381E" stroke="#1E381E" stroke-width="3" x1="327.2" y1="372.8" x2="304.7" y2="313.9"/>
<line fill="#1E381E" stroke="#1E381E" stroke-width="3" x1="2.8" y1="189.1" x2="61.8" y2="189.1"/>
<line fill="#1E381E" stroke="#1E381E" stroke-width="3" x1="127.8" y1="218.3" x2="185.9" y2="218.3"/>
<line fill="#1E381E" stroke="#1E381E" stroke-width="3" x1="253.3" y1="218.3" x2="311.3" y2="218.3"/>
<line fill="#1E381E" stroke="#1E381E" stroke-width="3" x1="252.4" y1="189.1" x2="311.2" y2="189.1"/>
<line fill="#1E381E" x1="222.1" y1="123.5" x2="311.2" y2="123.5"/>
<line fill="#1E381E" stroke="#1E381E" stroke-width="3" x1="252.4" y1="247.8" x2="311.2" y2="247.8"/>
<line fill="#1E381E" stroke="#1E381E" stroke-width="3" x1="32.3" y1="248" x2="32.3" y2="190.5"/>
<line fill="#1E381E" stroke="#1E381E" stroke-width="3" x1="127.6" y1="247.8" x2="127.6" y2="188.9"/>
<line fill="#1E381E" x1="222.1" y1="123.2" x2="222.1" y2="64.3"/>
<line fill="#1E381E" x1="222.1" y1="63.8" x2="310.9" y2="1.3"/>
<line fill="#1E381E" x1="311.2" y1="123.2" x2="311.2" y2="1.6"/>
<line fill="#1E381E" stroke="#1E381E" stroke-width="3" x1="186.5" y1="247.8" x2="186.5" y2="188.9"/>
<line fill="#1E381E" stroke="#1E381E" stroke-width="3" x1="252.1" y1="189.1" x2="252.1" y2="247.8"/>
<line fill="#1E381E" stroke="#1E381E" stroke-width="3" x1="4.1" y1="343" x2="62.1" y2="343"/>
<line fill="#1E381E" stroke="#1E381E" stroke-width="3" x1="3.1" y1="313.8" x2="62" y2="313.8"/>
<line fill="#1E381E" stroke="#1E381E" stroke-width="3" x1="2.9" y1="372.5" x2="2.9" y2="313.8"/>
</svg>
