<?xml version="1.0" encoding="utf-8"?>
<!-- Generator: Adobe Illustrator 18.1.1, SVG Export Plug-In . SVG Version: 6.00 Build 0)  -->
<svg version="1.1" id="Layer_1" xmlns="http://www.w3.org/2000/svg" xmlns:xlink="http://www.w3.org/1999/xlink" x="0px" y="0px"
	 viewBox="0 0 747 66" enable-background="new 0 0 747 66" xml:space="preserve">
<g>
	<polygon fill="#D4A551" points="253.2,33.2 253.2,59.6 292.8,59.6 292.8,5.4 	"/>
	<g>
		<line fill="#1E381E" stroke="#1E381E" stroke-width="3" x1="561.3" y1="21.5" x2="599.6" y2="21.5"/>
		<line fill="#1E381E" stroke="#1E381E" stroke-width="3" x1="561.3" y1="59.6" x2="599.6" y2="59.6"/>
		<line fill="#1E381E" stroke="#1E381E" stroke-width="3" x1="580.3" y1="58.5" x2="580.3" y2="21.6"/>
	</g>
	<g>
		<line fill="#1E381E" stroke="#1E381E" stroke-width="3" x1="675.9" y1="59.6" x2="637.9" y2="59.6"/>
		<line fill="#1E381E" stroke="#1E381E" stroke-width="3" x1="637.7" y1="21.4" x2="637.7" y2="59.5"/>
	</g>
	<g>
		<line fill="#1E381E" stroke="#1E381E" stroke-width="3" x1="698.3" y1="20.9" x2="719.6" y2="40.6"/>
		<line fill="#1E381E" stroke="#1E381E" stroke-width="3" x1="719.8" y1="40.6" x2="741.2" y2="20.9"/>
		<line fill="#1E381E" stroke="#1E381E" stroke-width="3" x1="719.6" y1="59.6" x2="719.6" y2="40.3"/>
	</g>
	<g>
		<line fill="#1E381E" stroke="#1E381E" stroke-width="3" x1="4.8" y1="21.3" x2="43.1" y2="21.3"/>
		<line fill="#1E381E" stroke="#1E381E" stroke-width="3" x1="24" y1="59.6" x2="24" y2="22.3"/>
	</g>
	<g>
		<line fill="#1E381E" stroke="#1E381E" stroke-width="3" x1="85.9" y1="40.4" x2="123.6" y2="40.4"/>
		<line fill="#1E381E" stroke="#1E381E" stroke-width="3" x1="85.8" y1="59.6" x2="85.8" y2="21.3"/>
		<line fill="#1E381E" stroke="#1E381E" stroke-width="3" x1="124" y1="59.6" x2="124" y2="21.3"/>
	</g>
	<g>
		<line fill="#1E381E" stroke="#1E381E" stroke-width="3" x1="167.3" y1="40.4" x2="205" y2="40.4"/>
		<line fill="#1E381E" stroke="#1E381E" stroke-width="3" x1="166.7" y1="21.4" x2="204.9" y2="21.4"/>
		<line fill="#1E381E" stroke="#1E381E" stroke-width="3" x1="166.7" y1="59.6" x2="204.9" y2="59.6"/>
		<line fill="#1E381E" stroke="#1E381E" stroke-width="3" x1="166.6" y1="21.5" x2="166.6" y2="59.5"/>
	</g>
	<g>
		<line fill="#1E381E" stroke="#1E381E" stroke-width="3" x1="409.8" y1="40.6" x2="432.7" y2="40.6"/>
		<line fill="#1E381E" stroke="#1E381E" stroke-width="3" x1="398.2" y1="59.6" x2="421.2" y2="21.4"/>
		<line fill="#1E381E" stroke="#1E381E" stroke-width="3" x1="421.2" y1="21.4" x2="444.2" y2="59.6"/>
	</g>
	<g>
		<line fill="#1E381E" stroke="#1E381E" stroke-width="3" x1="470.2" y1="59.5" x2="484.8" y2="21.3"/>
		<line fill="#1E381E" stroke="#1E381E" stroke-width="3" x1="499.7" y1="59.6" x2="485.2" y2="21.3"/>
		<line fill="#1E381E" stroke="#1E381E" stroke-width="3" x1="514.5" y1="21.3" x2="500" y2="59.6"/>
		<line fill="#1E381E" stroke="#1E381E" stroke-width="3" x1="529.4" y1="59.5" x2="514.8" y2="21.3"/>
	</g>
	<g>
		<line fill="#1E381E" stroke="#1E381E" stroke-width="3" x1="332.4" y1="40.5" x2="370.1" y2="40.5"/>
		<line fill="#1E381E" stroke="#1E381E" stroke-width="3" x1="331.8" y1="21.5" x2="370" y2="21.5"/>
		<line fill="#1E381E" stroke="#1E381E" stroke-width="3" x1="331.6" y1="59.6" x2="331.6" y2="21.5"/>
	</g>
</g>
</svg>
