<?xml version="1.0" encoding="utf-8"?>
<!-- Generator: Adobe Illustrator 18.1.1, SVG Export Plug-In . SVG Version: 6.00 Build 0)  -->
<svg version="1.1" id="Layer_2" xmlns="http://www.w3.org/2000/svg" xmlns:xlink="http://www.w3.org/1999/xlink" x="0px" y="0px"
	 viewBox="0 0 748.3 62.4" enable-background="new 0 0 748.3 62.4" xml:space="preserve">
<g>
	<polygon fill="#1E381E" stroke="#1E381E" stroke-width="0.475" points="253.9,31.4 253.9,57.7 293.5,57.7 293.5,3.6 	"/>
	<g>
		<line fill="#1E381E" stroke="#1E381E" stroke-width="3" x1="561.9" y1="19.7" x2="600.3" y2="19.7"/>
		<line fill="#1E381E" stroke="#1E381E" stroke-width="3" x1="561.9" y1="57.7" x2="600.3" y2="57.7"/>
		<line fill="#1E381E" stroke="#1E381E" stroke-width="3" x1="581" y1="56.7" x2="581" y2="19.7"/>
	</g>
	<g>
		<line fill="#1E381E" stroke="#1E381E" stroke-width="3" x1="676.6" y1="57.7" x2="638.6" y2="57.7"/>
		<line fill="#1E381E" stroke="#1E381E" stroke-width="3" x1="638.4" y1="19.6" x2="638.4" y2="57.7"/>
	</g>
	<g>
		<line fill="#1E381E" stroke="#1E381E" stroke-width="3" x1="698.9" y1="19.1" x2="720.3" y2="38.8"/>
		<line fill="#1E381E" stroke="#1E381E" stroke-width="3" x1="720.5" y1="38.8" x2="741.8" y2="19.1"/>
		<line fill="#1E381E" stroke="#1E381E" stroke-width="3" x1="720.3" y1="57.7" x2="720.3" y2="38.5"/>
	</g>
	<g>
		<line fill="#1E381E" stroke="#1E381E" stroke-width="3" x1="5.5" y1="19.5" x2="43.8" y2="19.5"/>
		<line fill="#1E381E" stroke="#1E381E" stroke-width="3" x1="24.6" y1="57.7" x2="24.6" y2="20.5"/>
	</g>
	<g>
		<line fill="#1E381E" stroke="#1E381E" stroke-width="3" x1="86.6" y1="38.6" x2="124.3" y2="38.6"/>
		<line fill="#1E381E" stroke="#1E381E" stroke-width="3" x1="86.4" y1="57.7" x2="86.4" y2="19.5"/>
		<line fill="#1E381E" stroke="#1E381E" stroke-width="3" x1="124.6" y1="57.7" x2="124.6" y2="19.5"/>
	</g>
	<g>
		<line fill="#1E381E" stroke="#1E381E" stroke-width="3" x1="168" y1="38.6" x2="205.7" y2="38.6"/>
		<line fill="#1E381E" stroke="#1E381E" stroke-width="3" x1="167.4" y1="19.6" x2="205.6" y2="19.6"/>
		<line fill="#1E381E" stroke="#1E381E" stroke-width="3" x1="167.4" y1="57.7" x2="205.6" y2="57.7"/>
		<line fill="#1E381E" stroke="#1E381E" stroke-width="3" x1="167.2" y1="19.6" x2="167.2" y2="57.7"/>
	</g>
	<g>
		<line fill="#1E381E" stroke="#1E381E" stroke-width="3" x1="410.5" y1="38.8" x2="433.4" y2="38.8"/>
		<line fill="#1E381E" stroke="#1E381E" stroke-width="3" x1="398.9" y1="57.7" x2="421.8" y2="19.6"/>
		<line fill="#1E381E" stroke="#1E381E" stroke-width="3" x1="421.9" y1="19.6" x2="444.8" y2="57.7"/>
	</g>
	<g>
		<line fill="#1E381E" stroke="#1E381E" stroke-width="3" x1="470.9" y1="57.7" x2="485.5" y2="19.5"/>
		<line fill="#1E381E" stroke="#1E381E" stroke-width="3" x1="500.4" y1="57.7" x2="485.9" y2="19.5"/>
		<line fill="#1E381E" stroke="#1E381E" stroke-width="3" x1="515.2" y1="19.5" x2="500.7" y2="57.7"/>
		<line fill="#1E381E" stroke="#1E381E" stroke-width="3" x1="530.1" y1="57.7" x2="515.5" y2="19.5"/>
	</g>
	<g>
		<line fill="#1E381E" stroke="#1E381E" stroke-width="3" x1="333.1" y1="38.6" x2="370.7" y2="38.6"/>
		<line fill="#1E381E" stroke="#1E381E" stroke-width="3" x1="332.5" y1="19.7" x2="370.6" y2="19.7"/>
		<line fill="#1E381E" stroke="#1E381E" stroke-width="3" x1="332.3" y1="57.7" x2="332.3" y2="19.7"/>
	</g>
</g>
</svg>
