<?xml version="1.0" encoding="utf-8"?>
<!-- Generator: Adobe Illustrator 18.1.1, SVG Export Plug-In . SVG Version: 6.00 Build 0)  -->
<svg version="1.1" id="Capa_1" xmlns="http://www.w3.org/2000/svg" xmlns:xlink="http://www.w3.org/1999/xlink" x="0px" y="0px"
	 viewBox="0 0 36.9 36.9" enable-background="new 0 0 36.9 36.9" xml:space="preserve">
<path fill="#FFFFFF" d="M18.4,35.4c9.4,0,17-7.6,17-17c0-9.4-7.6-17-17-17c-9.4,0-17,7.6-17,17C1.4,27.8,9,35.4,18.4,35.4"/>
<g>
	<g>
		<path fill="#1D381F" d="M23.2,10.2h-8.6V14h-0.7v-3.8h0c-0.2,0-0.4,0-0.5,0V14h-0.7v-3.5c-0.2,0.1-0.4,0.2-0.6,0.3V14h-0.7v-2.7
			c-0.6,0.6-1,1.5-1,2.5v1.1h5.3c0.8-0.6,1.7-1,2.8-1c1.1,0,2,0.4,2.8,1h5.3v-1.1C26.6,11.8,25.1,10.2,23.2,10.2z M25.2,13.5
			c0,0.2-0.2,0.4-0.4,0.4h-1.7c-0.2,0-0.4-0.2-0.4-0.4v-1.7c0-0.2,0.2-0.4,0.4-0.4h1.7c0.2,0,0.4,0.2,0.4,0.4V13.5z"/>
		<path fill="#1D381F" d="M23,18.4c0,2.5-2,4.5-4.5,4.5c-2.5,0-4.5-2-4.5-4.5c0-1.1,0.4-2.1,1-2.9h-4.7V23c0,1.9,1.6,3.5,3.5,3.5
			h9.3c1.9,0,3.5-1.6,3.5-3.5v-7.5H22C22.6,16.3,23,17.3,23,18.4z"/>
	</g>
	<path fill="#1D381F" d="M18.5,22.1c-2.1,0-3.8-1.7-3.8-3.8c0-2.1,1.7-3.8,3.8-3.8c2.1,0,3.8,1.7,3.8,3.8
		C22.3,20.4,20.6,22.1,18.5,22.1z M18.5,15.1c-1.8,0-3.2,1.4-3.2,3.2c0,1.8,1.4,3.2,3.2,3.2c1.8,0,3.2-1.4,3.2-3.2
		C21.7,16.6,20.3,15.1,18.5,15.1z"/>
</g>
</svg>
